# xmcd
#
# Track frame offsets:
#	150
#	17513
#	35670
#	68757
#
# Disc length: 1698 seconds
#
# Revision: 2
# Processed by: cddbd v1.5.2PL0 Copyright (c) Steve Scherf et al.
# Submitted via: audiograbber 1.83.01
#
DISCID=2a06a004
DTITLE=Robbie Williams - (Maxi) Radio
DYEAR=2004
DGENRE=Pop
TTITLE0=Radio
TTITLE1=Northern Town
TTITLE2=Radio [Sam La More Jumpin' Radio Mix]
TTITLE3=DATA
EXTD=
EXTT0=
EXTT1=
EXTT2=
EXTT3=
PLAYORDER=
